<svg width="239" height="230" viewBox="0 0 239 230" fill="none" xmlns="http://www.w3.org/2000/svg">
<rect width="209" height="205" rx="10" fill="#DDEAFF"/>
<rect x="105.5" y="25.5" width="133" height="204" rx="9.5" stroke="#BFC4CC"/>
<circle cx="34.8462" cy="27.8462" r="2.84616" fill="#AFCEFF"/>
<circle cx="63.3076" cy="27.8462" r="2.84616" fill="#AFCEFF"/>
<circle cx="91.7695" cy="27.8462" r="2.84616" fill="#AFCEFF"/>
<circle cx="120.231" cy="27.8462" r="2.84616" fill="#AFCEFF"/>
<circle cx="148.692" cy="27.8462" r="2.84616" fill="#AFCEFF"/>
<circle cx="177.154" cy="27.8462" r="2.84616" fill="#AFCEFF"/>
<circle cx="34.8462" cy="56.3071" r="2.84616" fill="#AFCEFF"/>
<circle cx="63.3076" cy="56.3071" r="2.84616" fill="#AFCEFF"/>
<circle cx="91.7695" cy="56.3071" r="2.84616" fill="#AFCEFF"/>
<circle cx="120.231" cy="56.3071" r="2.84616" fill="#AFCEFF"/>
<circle cx="148.692" cy="56.3071" r="2.84616" fill="#AFCEFF"/>
<circle cx="177.154" cy="56.3071" r="2.84616" fill="#AFCEFF"/>
<circle cx="34.8462" cy="84.77" r="2.84616" fill="#AFCEFF"/>
<circle cx="63.3076" cy="84.77" r="2.84616" fill="#AFCEFF"/>
<circle cx="91.7695" cy="84.77" r="2.84616" fill="#AFCEFF"/>
<circle cx="120.231" cy="84.77" r="2.84616" fill="#AFCEFF"/>
<circle cx="148.692" cy="84.77" r="2.84616" fill="#AFCEFF"/>
<circle cx="177.154" cy="84.77" r="2.84616" fill="#AFCEFF"/>
<circle cx="34.8462" cy="113.231" r="2.84616" fill="#AFCEFF"/>
<circle cx="63.3076" cy="113.231" r="2.84616" fill="#AFCEFF"/>
<circle cx="91.7695" cy="113.231" r="2.84616" fill="#AFCEFF"/>
<circle cx="120.231" cy="113.231" r="2.84616" fill="#AFCEFF"/>
<circle cx="148.692" cy="113.231" r="2.84616" fill="#AFCEFF"/>
<circle cx="177.154" cy="113.231" r="2.84616" fill="#AFCEFF"/>
<circle cx="34.8462" cy="141.692" r="2.84616" fill="#AFCEFF"/>
<circle cx="63.3076" cy="141.692" r="2.84616" fill="#AFCEFF"/>
<circle cx="91.7695" cy="141.692" r="2.84616" fill="#AFCEFF"/>
<circle cx="120.231" cy="141.692" r="2.84616" fill="#AFCEFF"/>
<circle cx="148.692" cy="141.692" r="2.84616" fill="#AFCEFF"/>
<circle cx="177.154" cy="141.692" r="2.84616" fill="#AFCEFF"/>
<circle cx="34.8462" cy="170.154" r="2.84616" fill="#AFCEFF"/>
<circle cx="63.3076" cy="170.154" r="2.84616" fill="#AFCEFF"/>
<circle cx="91.7695" cy="170.154" r="2.84616" fill="#AFCEFF"/>
<circle cx="120.231" cy="170.154" r="2.84616" fill="#AFCEFF"/>
<circle cx="148.692" cy="170.154" r="2.84616" fill="#AFCEFF"/>
<circle cx="177.154" cy="170.154" r="2.84616" fill="#AFCEFF"/>
</svg>
