<svg width="148" height="148" viewBox="0 0 148 148" fill="none" xmlns="http://www.w3.org/2000/svg">
<circle cx="2.84616" cy="2.84616" r="2.84616" fill="#C3D9FD"/>
<circle cx="31.3076" cy="2.84616" r="2.84616" fill="#C3D9FD"/>
<circle cx="59.7695" cy="2.84616" r="2.84616" fill="#C3D9FD"/>
<circle cx="88.2309" cy="2.84616" r="2.84616" fill="#C3D9FD"/>
<circle cx="116.692" cy="2.84616" r="2.84616" fill="#C3D9FD"/>
<circle cx="145.154" cy="2.84616" r="2.84616" fill="#C3D9FD"/>
<circle cx="2.84616" cy="31.3071" r="2.84616" fill="#C3D9FD"/>
<circle cx="31.3076" cy="31.3071" r="2.84616" fill="#C3D9FD"/>
<circle cx="59.7695" cy="31.3071" r="2.84616" fill="#C3D9FD"/>
<circle cx="88.2309" cy="31.3071" r="2.84616" fill="#C3D9FD"/>
<circle cx="116.692" cy="31.3071" r="2.84616" fill="#C3D9FD"/>
<circle cx="145.154" cy="31.3071" r="2.84616" fill="#C3D9FD"/>
<circle cx="2.84616" cy="59.77" r="2.84616" fill="#C3D9FD"/>
<circle cx="31.3076" cy="59.77" r="2.84616" fill="#C3D9FD"/>
<circle cx="59.7695" cy="59.77" r="2.84616" fill="#C3D9FD"/>
<circle cx="88.2309" cy="59.77" r="2.84616" fill="#C3D9FD"/>
<circle cx="116.692" cy="59.77" r="2.84616" fill="#C3D9FD"/>
<circle cx="145.154" cy="59.77" r="2.84616" fill="#C3D9FD"/>
<circle cx="2.84616" cy="88.2309" r="2.84616" fill="#C3D9FD"/>
<circle cx="31.3076" cy="88.2309" r="2.84616" fill="#C3D9FD"/>
<circle cx="59.7695" cy="88.2309" r="2.84616" fill="#C3D9FD"/>
<circle cx="88.2309" cy="88.2309" r="2.84616" fill="#C3D9FD"/>
<circle cx="116.692" cy="88.2309" r="2.84616" fill="#C3D9FD"/>
<circle cx="145.154" cy="88.2309" r="2.84616" fill="#C3D9FD"/>
<circle cx="2.84616" cy="116.692" r="2.84616" fill="#C3D9FD"/>
<circle cx="31.3076" cy="116.692" r="2.84616" fill="#C3D9FD"/>
<circle cx="59.7695" cy="116.692" r="2.84616" fill="#C3D9FD"/>
<circle cx="88.2309" cy="116.692" r="2.84616" fill="#C3D9FD"/>
<circle cx="116.692" cy="116.692" r="2.84616" fill="#C3D9FD"/>
<circle cx="145.154" cy="116.692" r="2.84616" fill="#C3D9FD"/>
<circle cx="2.84616" cy="145.154" r="2.84616" fill="#C3D9FD"/>
<circle cx="31.3076" cy="145.154" r="2.84616" fill="#C3D9FD"/>
<circle cx="59.7695" cy="145.154" r="2.84616" fill="#C3D9FD"/>
<circle cx="88.2309" cy="145.154" r="2.84616" fill="#C3D9FD"/>
<circle cx="116.692" cy="145.154" r="2.84616" fill="#C3D9FD"/>
<circle cx="145.154" cy="145.154" r="2.84616" fill="#C3D9FD"/>
</svg>
