<svg width="116" height="20" viewBox="0 0 116 20" fill="none" xmlns="http://www.w3.org/2000/svg">
<path d="M35.4697 16.8792C33.2758 16.8792 31.6013 16.2808 30.4459 15.0841C29.3036 13.8874 28.7324 12.1878 28.7324 9.98528C28.7324 8.8904 28.9077 7.91647 29.2582 7.06348C29.6087 6.19776 30.089 5.47209 30.6991 4.88645C31.3092 4.28809 32.0361 3.83613 32.8799 3.53059C33.7237 3.22504 34.6389 3.07227 35.6254 3.07227C36.1966 3.07227 36.7159 3.11682 37.1832 3.20594C37.6505 3.28233 38.0594 3.37781 38.4099 3.49239C38.7604 3.59424 39.0525 3.70246 39.2861 3.81704C39.5198 3.93162 39.6886 4.02074 39.7924 4.08439L38.9162 6.49058C38.5008 6.27415 38.014 6.08955 37.4558 5.93677C36.9106 5.784 36.2875 5.70761 35.5865 5.70761C35.1192 5.70761 34.6583 5.784 34.204 5.93677C33.7626 6.08955 33.3667 6.3378 33.0162 6.68154C32.6787 7.01255 32.4061 7.44541 32.1984 7.98012C31.9907 8.51483 31.8869 9.16412 31.8869 9.92799C31.8869 10.5391 31.9518 11.112 32.0816 11.6467C32.2244 12.1687 32.445 12.6206 32.7436 13.0026C33.0552 13.3845 33.4576 13.69 33.9509 13.9192C34.4441 14.1356 35.0413 14.2438 35.7423 14.2438C36.1836 14.2438 36.5796 14.2184 36.93 14.1675C37.2805 14.1165 37.5921 14.0592 37.8647 13.9956C38.1373 13.9192 38.3775 13.8364 38.5852 13.7473C38.7929 13.6582 38.9811 13.5755 39.1498 13.4991L39.9871 15.8862C39.5587 16.1408 38.9551 16.3699 38.1762 16.5736C37.3974 16.7773 36.4952 16.8792 35.4697 16.8792Z" fill="#1F2332"/>
<path d="M50.9583 14.0529V16.6118H41.9428V3.37781H44.9804V14.0529H50.9583Z" fill="#1F2332"/>
<path d="M62.5581 16.6118C62.4153 16.1535 62.2531 15.6825 62.0713 15.1987C61.9026 14.7149 61.7338 14.2311 61.5651 13.7473H56.3077C56.1389 14.2311 55.9637 14.7149 55.7819 15.1987C55.6132 15.6825 55.4574 16.1535 55.3146 16.6118H52.1602C52.6665 15.1859 53.1468 13.8683 53.6011 12.6588C54.0554 11.4494 54.4968 10.3099 54.9252 9.24051C55.3665 8.17109 55.7949 7.15896 56.2103 6.20413C56.6387 5.23656 57.0801 4.29446 57.5344 3.37781H60.4357C60.8771 4.29446 61.3119 5.23656 61.7403 6.20413C62.1687 7.15896 62.5971 8.17109 63.0255 9.24051C63.4668 10.3099 63.9147 11.4494 64.369 12.6588C64.8234 13.8683 65.3037 15.1859 65.8099 16.6118H62.5581ZM58.9169 6.376C58.852 6.56696 58.7546 6.82795 58.6248 7.15896C58.495 7.48997 58.3457 7.87191 58.177 8.30477C58.0082 8.73762 57.82 9.21504 57.6123 9.73702C57.4176 10.259 57.2164 10.8064 57.0087 11.3793H60.8446C60.6369 10.8064 60.4357 10.259 60.241 9.73702C60.0463 9.21504 59.858 8.73762 59.6763 8.30477C59.5076 7.87191 59.3583 7.48997 59.2285 7.15896C59.0986 6.82795 58.9948 6.56696 58.9169 6.376Z" fill="#1F2332"/>
<path d="M71.5981 14.3393C72.0264 14.3393 72.3769 14.3075 72.6495 14.2438C72.9351 14.1675 73.1623 14.072 73.3311 13.9574C73.4998 13.8301 73.6166 13.6837 73.6816 13.5182C73.7465 13.3527 73.7789 13.1681 73.7789 12.9644C73.7789 12.5315 73.5712 12.175 73.1558 11.8949C72.7404 11.6021 72.0264 11.2902 71.0139 10.9592C70.5726 10.8064 70.1312 10.6346 69.6898 10.4436C69.2485 10.2399 68.8525 9.99164 68.5021 9.69883C68.1516 9.39328 67.866 9.03044 67.6453 8.61031C67.4246 8.17745 67.3143 7.65548 67.3143 7.04438C67.3143 6.43329 67.4311 5.88585 67.6648 5.40207C67.8984 4.90555 68.2294 4.48542 68.6578 4.14168C69.0862 3.79794 69.6055 3.53695 70.2156 3.35872C70.8257 3.16775 71.5137 3.07227 72.2796 3.07227C73.1883 3.07227 73.9736 3.16775 74.6357 3.35872C75.2977 3.54968 75.8429 3.75975 76.2713 3.98891L75.3951 6.3378C75.0186 6.14684 74.5967 5.98133 74.1294 5.84129C73.6751 5.68852 73.1234 5.61213 72.4743 5.61213C71.7474 5.61213 71.2216 5.71398 70.8971 5.91768C70.5855 6.10864 70.4298 6.40783 70.4298 6.81522C70.4298 7.05711 70.4882 7.26081 70.605 7.42632C70.7218 7.59182 70.8841 7.7446 71.0918 7.88464C71.3125 8.01195 71.5591 8.1329 71.8317 8.24748C72.1173 8.34932 72.4289 8.45754 72.7664 8.57212C73.4674 8.82674 74.0775 9.08137 74.5967 9.33599C75.116 9.57788 75.5444 9.86433 75.8819 10.1953C76.2324 10.5264 76.492 10.9147 76.6607 11.3602C76.8295 11.8058 76.9139 12.3469 76.9139 12.9835C76.9139 14.2184 76.4725 15.1796 75.5898 15.8671C74.7071 16.5418 73.3765 16.8792 71.5981 16.8792C71.0009 16.8792 70.4622 16.841 69.9819 16.7646C69.5016 16.701 69.0732 16.6182 68.6968 16.5164C68.3333 16.4145 68.0153 16.3063 67.7426 16.1917C67.483 16.0771 67.2623 15.9689 67.0806 15.8671L67.9374 13.4991C68.3398 13.7155 68.8331 13.9128 69.4172 14.0911C70.0144 14.2566 70.7413 14.3393 71.5981 14.3393Z" fill="#1F2332"/>
<path d="M82.9313 14.3393C83.3596 14.3393 83.7101 14.3075 83.9827 14.2438C84.2683 14.1675 84.4955 14.072 84.6643 13.9574C84.833 13.8301 84.9498 13.6837 85.0147 13.5182C85.0797 13.3527 85.1121 13.1681 85.1121 12.9644C85.1121 12.5315 84.9044 12.175 84.489 11.8949C84.0736 11.6021 83.3596 11.2902 82.3471 10.9592C81.9057 10.8064 81.4644 10.6346 81.023 10.4436C80.5817 10.2399 80.1857 9.99164 79.8352 9.69883C79.4848 9.39328 79.1992 9.03044 78.9785 8.61031C78.7578 8.17745 78.6475 7.65548 78.6475 7.04438C78.6475 6.43329 78.7643 5.88585 78.998 5.40207C79.2316 4.90555 79.5626 4.48542 79.991 4.14168C80.4194 3.79794 80.9386 3.53695 81.5488 3.35872C82.1589 3.16775 82.8469 3.07227 83.6128 3.07227C84.5215 3.07227 85.3068 3.16775 85.9689 3.35872C86.6309 3.54968 87.1761 3.75975 87.6045 3.98891L86.7283 6.3378C86.3518 6.14684 85.9299 5.98133 85.4626 5.84129C85.0083 5.68852 84.4566 5.61213 83.8075 5.61213C83.0805 5.61213 82.5548 5.71398 82.2303 5.91768C81.9187 6.10864 81.763 6.40783 81.763 6.81522C81.763 7.05711 81.8214 7.26081 81.9382 7.42632C82.055 7.59182 82.2173 7.7446 82.425 7.88464C82.6457 8.01195 82.8923 8.1329 83.1649 8.24748C83.4505 8.34932 83.7621 8.45754 84.0996 8.57212C84.8006 8.82674 85.4107 9.08137 85.9299 9.33599C86.4492 9.57788 86.8776 9.86433 87.2151 10.1953C87.5656 10.5264 87.8252 10.9147 87.9939 11.3602C88.1627 11.8058 88.2471 12.3469 88.2471 12.9835C88.2471 14.2184 87.8057 15.1796 86.923 15.8671C86.0403 16.5418 84.7097 16.8792 82.9313 16.8792C82.3341 16.8792 81.7954 16.841 81.3151 16.7646C80.8348 16.701 80.4064 16.6182 80.03 16.5164C79.6665 16.4145 79.3485 16.3063 79.0758 16.1917C78.8162 16.0771 78.5955 15.9689 78.4138 15.8671L79.2706 13.4991C79.673 13.7155 80.1663 13.9128 80.7504 14.0911C81.3476 14.2566 82.0745 14.3393 82.9313 14.3393Z" fill="#1F2332"/>
<path d="M99.5391 16.8983C99.1886 16.8983 98.8187 16.8728 98.4292 16.8219C98.0398 16.7837 97.6633 16.7264 97.2999 16.65C96.9364 16.5736 96.6054 16.4909 96.3068 16.4018C96.0082 16.3127 95.7746 16.2299 95.6058 16.1535L96.1705 13.7855C96.508 13.9256 96.9364 14.0783 97.4556 14.2438C97.9879 14.3966 98.6434 14.473 99.4223 14.473C100.318 14.473 100.974 14.3075 101.389 13.9765C101.804 13.6455 102.012 13.1999 102.012 12.6397C102.012 12.296 101.934 12.0095 101.778 11.7804C101.636 11.5385 101.434 11.3475 101.175 11.2075C100.915 11.0547 100.604 10.9528 100.24 10.9019C99.8896 10.8383 99.5132 10.8064 99.1108 10.8064H97.9814V8.51483H99.2665C99.5521 8.51483 99.8247 8.48937 100.084 8.43844C100.357 8.38752 100.597 8.30477 100.805 8.19019C101.012 8.06287 101.175 7.89737 101.292 7.69367C101.421 7.47724 101.486 7.20989 101.486 6.89161C101.486 6.64972 101.434 6.43965 101.331 6.26142C101.227 6.08318 101.09 5.93677 100.922 5.82219C100.766 5.70761 100.578 5.62486 100.357 5.57394C100.149 5.51028 99.935 5.47845 99.7144 5.47845C99.1562 5.47845 98.6369 5.5612 98.1566 5.72671C97.6893 5.89221 97.2609 6.09591 96.8715 6.3378L95.8395 4.25626C96.0472 4.12895 96.2873 3.99527 96.5599 3.85523C96.8455 3.71519 97.1571 3.58788 97.4946 3.4733C97.8321 3.35872 98.1891 3.26323 98.5655 3.18685C98.955 3.11046 99.3639 3.07227 99.7923 3.07227C100.584 3.07227 101.266 3.16775 101.837 3.35872C102.421 3.53695 102.901 3.79794 103.278 4.14168C103.654 4.47269 103.933 4.86736 104.115 5.32568C104.297 5.77127 104.388 6.26142 104.388 6.79613C104.388 7.3181 104.238 7.82735 103.94 8.32386C103.641 8.80765 103.239 9.17685 102.733 9.43147C103.433 9.71156 103.972 10.1317 104.349 10.6919C104.738 11.2393 104.933 11.9013 104.933 12.6779C104.933 13.289 104.829 13.8555 104.621 14.3775C104.414 14.8868 104.089 15.3324 103.648 15.7143C103.206 16.0835 102.642 16.3763 101.954 16.5927C101.279 16.7964 100.474 16.8983 99.5391 16.8983Z" fill="#1F2332"/>
<path d="M110.606 16.8983C110.256 16.8983 109.886 16.8728 109.496 16.8219C109.107 16.7837 108.73 16.7264 108.367 16.65C108.003 16.5736 107.672 16.4909 107.374 16.4018C107.075 16.3127 106.842 16.2299 106.673 16.1535L107.237 13.7855C107.575 13.9256 108.003 14.0783 108.523 14.2438C109.055 14.3966 109.71 14.473 110.489 14.473C111.385 14.473 112.041 14.3075 112.456 13.9765C112.871 13.6455 113.079 13.1999 113.079 12.6397C113.079 12.296 113.001 12.0095 112.845 11.7804C112.703 11.5385 112.501 11.3475 112.242 11.2075C111.982 11.0547 111.671 10.9528 111.307 10.9019C110.957 10.8383 110.58 10.8064 110.178 10.8064H109.048V8.51483H110.333C110.619 8.51483 110.892 8.48937 111.151 8.43844C111.424 8.38752 111.664 8.30477 111.872 8.19019C112.079 8.06287 112.242 7.89737 112.359 7.69367C112.488 7.47724 112.553 7.20989 112.553 6.89161C112.553 6.64972 112.501 6.43965 112.398 6.26142C112.294 6.08318 112.157 5.93677 111.989 5.82219C111.833 5.70761 111.645 5.62486 111.424 5.57394C111.216 5.51028 111.002 5.47845 110.781 5.47845C110.223 5.47845 109.704 5.5612 109.224 5.72671C108.756 5.89221 108.328 6.09591 107.938 6.3378L106.906 4.25626C107.114 4.12895 107.354 3.99527 107.627 3.85523C107.913 3.71519 108.224 3.58788 108.562 3.4733C108.899 3.35872 109.256 3.26323 109.633 3.18685C110.022 3.11046 110.431 3.07227 110.859 3.07227C111.651 3.07227 112.333 3.16775 112.904 3.35872C113.488 3.53695 113.968 3.79794 114.345 4.14168C114.721 4.47269 115 4.86736 115.182 5.32568C115.364 5.77127 115.455 6.26142 115.455 6.79613C115.455 7.3181 115.305 7.82735 115.007 8.32386C114.708 8.80765 114.306 9.17685 113.799 9.43147C114.5 9.71156 115.039 10.1317 115.416 10.6919C115.805 11.2393 116 11.9013 116 12.6779C116 13.289 115.896 13.8555 115.688 14.3775C115.481 14.8868 115.156 15.3324 114.715 15.7143C114.273 16.0835 113.709 16.3763 113.021 16.5927C112.346 16.7964 111.541 16.8983 110.606 16.8983Z" fill="#1F2332"/>
<path d="M8.83302 4.98188C12.3801 6.22734 16.2055 6.15816 19.7178 4.8089C19.7526 3.39045 19.37 1.97199 18.7093 0.691928L18.3615 0C18.2572 0.0345964 18.1181 0.103795 18.0486 0.172988C14.8492 1.69523 11.2325 1.90281 7.8593 0.691933C5.49456 -0.138379 2.92115 0.0691971 0.695513 1.17628L0 1.52224C0.0347756 1.62603 0.104335 1.76441 0.173886 1.83361C0.591194 2.73311 0.938946 3.70181 1.18238 4.70511C3.61667 4.01318 6.32917 4.08237 8.83302 4.98188Z" fill="#3B82F6"/>
<path d="M0.17379 15.3954L0.938848 14.9803C2.48905 14.2092 4.19922 13.8359 5.89604 13.8851C6.93987 13.9154 7.97865 14.1056 8.97203 14.4613C9.29562 14.5756 9.62025 14.6804 9.94572 14.776L9.94572 18.4637C8.5993 18.2147 7.23625 18.1791 5.89604 18.3507C4.50579 18.5288 3.14011 18.9298 1.84302 19.547C1.77347 19.6162 1.63436 19.6854 1.53003 19.72L1.18228 19.0281C0.591091 17.8864 0.243341 16.6409 0.17379 15.3954Z" fill="#3B82F6"/>
<path d="M0.591323 12.2125C3.54725 11.0016 6.85095 10.8979 9.87643 11.9703C12.6585 12.939 15.6144 13.112 18.3965 12.4893C18.3617 10.9325 18.5703 9.41021 19.1268 7.88797C15.4753 8.96045 11.5457 8.85667 7.89422 7.5766C5.80768 6.81548 3.51248 6.81549 1.42594 7.50742C1.46072 8.99506 1.18252 10.5173 0.660884 12.0049C0.660884 12.0049 0.626099 12.1087 0.591323 12.2125Z" fill="#3B82F6"/>
</svg>
