<svg width="118" height="21" viewBox="0 0 118 21" fill="none" xmlns="http://www.w3.org/2000/svg">
<path d="M36.0814 17.17C33.8498 17.17 32.1463 16.5613 30.9711 15.3439C29.809 14.1266 29.228 12.3977 29.228 10.1572C29.228 9.04345 29.4063 8.05272 29.7628 7.18503C30.1194 6.30438 30.608 5.5662 31.2286 4.97047C31.8492 4.36179 32.5887 3.90204 33.447 3.59122C34.3054 3.28041 35.2363 3.125 36.2399 3.125C36.8209 3.125 37.3491 3.17033 37.8245 3.26098C38.2999 3.33869 38.7158 3.43582 39.0724 3.55237C39.4289 3.65598 39.726 3.76606 39.9637 3.88261C40.2014 3.99917 40.3731 4.08982 40.4787 4.15458L39.5874 6.60225C39.1648 6.38209 38.6696 6.1943 38.1018 6.0389C37.5472 5.88349 36.9133 5.80578 36.2003 5.80578C35.7249 5.80578 35.2561 5.88349 34.7939 6.0389C34.345 6.1943 33.9422 6.44684 33.5857 6.79651C33.2424 7.13323 32.965 7.57355 32.7538 8.11747C32.5425 8.6614 32.4368 9.32188 32.4368 10.0989C32.4368 10.7206 32.5029 11.3033 32.6349 11.8473C32.7802 12.3782 33.0047 12.838 33.3084 13.2265C33.6253 13.615 34.0347 13.9258 34.5364 14.159C35.0382 14.3791 35.6457 14.4892 36.3587 14.4892C36.8077 14.4892 37.2105 14.4633 37.567 14.4115C37.9235 14.3597 38.2404 14.3014 38.5178 14.2367C38.7951 14.159 39.0394 14.0748 39.2506 13.9841C39.4619 13.8935 39.6534 13.8093 39.8251 13.7316L40.6768 16.1598C40.241 16.4188 39.627 16.652 38.8347 16.8592C38.0424 17.0664 37.1246 17.17 36.0814 17.17Z" fill="#2A3342"/>
<path d="M51.8371 14.2949V16.898H42.6662V3.43582H45.7562V14.2949H51.8371Z" fill="#2A3342"/>
<path d="M63.6369 16.898C63.4917 16.4318 63.3266 15.9526 63.1418 15.4605C62.9701 14.9684 62.7984 14.4762 62.6268 13.9841H57.2787C57.1071 14.4762 56.9288 14.9684 56.7439 15.4605C56.5723 15.9526 56.4138 16.4318 56.2685 16.898H53.0597C53.5747 15.4475 54.0633 14.1071 54.5255 12.8768C54.9877 11.6465 55.4366 10.4874 55.8724 9.39959C56.3214 8.31173 56.7571 7.28216 57.1797 6.31086C57.6155 5.32661 58.0644 4.36826 58.5266 3.43582H61.4779C61.9269 4.36826 62.3693 5.32661 62.805 6.31086C63.2408 7.28216 63.6766 8.31173 64.1123 9.39959C64.5613 10.4874 65.0169 11.6465 65.479 12.8768C65.9412 14.1071 66.4298 15.4475 66.9448 16.898H63.6369ZM59.9329 6.48569C59.8669 6.67995 59.7679 6.94544 59.6358 7.28216C59.5038 7.61888 59.3519 8.00739 59.1802 8.44772C59.0086 8.88804 58.8171 9.37369 58.6058 9.90466C58.4078 10.4356 58.2031 10.9925 57.9918 11.5753H61.8939C61.6826 10.9925 61.4779 10.4356 61.2798 9.90466C61.0818 9.37369 60.8903 8.88804 60.7054 8.44772C60.5338 8.00739 60.3819 7.61888 60.2499 7.28216C60.1178 6.94544 60.0122 6.67995 59.9329 6.48569Z" fill="#2A3342"/>
<path d="M72.8327 14.5863C73.2685 14.5863 73.625 14.5539 73.9023 14.4892C74.1929 14.4115 74.4239 14.3144 74.5956 14.1978C74.7673 14.0683 74.8861 13.9194 74.9521 13.751C75.0182 13.5826 75.0512 13.3949 75.0512 13.1877C75.0512 12.7473 74.8399 12.3847 74.4173 12.0998C73.9948 11.8019 73.2685 11.4846 72.2385 11.1479C71.7895 10.9925 71.3406 10.8177 70.8916 10.6234C70.4426 10.4162 70.0399 10.1637 69.6833 9.86581C69.3268 9.555 69.0363 9.1859 68.8118 8.75853C68.5873 8.31821 68.4751 7.78723 68.4751 7.1656C68.4751 6.54397 68.5939 5.98709 68.8316 5.49497C69.0693 4.98989 69.406 4.56252 69.8418 4.21285C70.2776 3.86319 70.8058 3.5977 71.4264 3.41639C72.047 3.22213 72.7469 3.125 73.526 3.125C74.4503 3.125 75.2493 3.22213 75.9227 3.41639C76.5962 3.61065 77.1508 3.82434 77.5865 4.05745L76.6952 6.44684C76.3123 6.25258 75.8831 6.08422 75.4077 5.94177C74.9455 5.78636 74.3843 5.70865 73.7241 5.70865C72.9846 5.70865 72.4498 5.81226 72.1197 6.01947C71.8027 6.21373 71.6443 6.51807 71.6443 6.93249C71.6443 7.17855 71.7037 7.38576 71.8226 7.55412C71.9414 7.72248 72.1065 7.87789 72.3177 8.02035C72.5422 8.14985 72.7931 8.27288 73.0704 8.38944C73.3609 8.49304 73.6779 8.60312 74.0212 8.71968C74.7343 8.97869 75.3549 9.23771 75.8831 9.49672C76.4113 9.74278 76.8471 10.0342 77.1904 10.3709C77.5469 10.7076 77.811 11.1026 77.9827 11.5559C78.1544 12.0091 78.2402 12.5595 78.2402 13.2071C78.2402 14.4633 77.7912 15.4411 76.8933 16.1404C75.9953 16.8268 74.6418 17.17 72.8327 17.17C72.2253 17.17 71.6773 17.1311 71.1887 17.0534C70.7001 16.9887 70.2644 16.9045 69.8814 16.8009C69.5117 16.6973 69.1881 16.5872 68.9108 16.4706C68.6467 16.3541 68.4223 16.244 68.2374 16.1404L69.1089 13.7316C69.5183 13.9517 70.0201 14.1525 70.6143 14.3338C71.2217 14.5021 71.9612 14.5863 72.8327 14.5863Z" fill="#2A3342"/>
<path d="M84.3613 14.5863C84.7971 14.5863 85.1536 14.5539 85.4309 14.4892C85.7214 14.4115 85.9525 14.3144 86.1242 14.1978C86.2959 14.0683 86.4147 13.9194 86.4807 13.751C86.5468 13.5826 86.5798 13.3949 86.5798 13.1877C86.5798 12.7473 86.3685 12.3847 85.9459 12.0998C85.5234 11.8019 84.7971 11.4846 83.7671 11.1479C83.3181 10.9925 82.8692 10.8177 82.4202 10.6234C81.9712 10.4162 81.5685 10.1637 81.2119 9.86581C80.8554 9.555 80.5649 9.1859 80.3404 8.75853C80.1159 8.31821 80.0037 7.78723 80.0037 7.1656C80.0037 6.54397 80.1225 5.98709 80.3602 5.49497C80.5979 4.98989 80.9346 4.56252 81.3704 4.21285C81.8062 3.86319 82.3344 3.5977 82.955 3.41639C83.5756 3.22213 84.2755 3.125 85.0546 3.125C85.9789 3.125 86.7778 3.22213 87.4513 3.41639C88.1248 3.61065 88.6794 3.82434 89.1151 4.05745L88.2238 6.44684C87.8409 6.25258 87.4117 6.08422 86.9363 5.94177C86.4741 5.78636 85.9129 5.70865 85.2527 5.70865C84.5132 5.70865 83.9784 5.81226 83.6483 6.01947C83.3313 6.21373 83.1729 6.51807 83.1729 6.93249C83.1729 7.17855 83.2323 7.38576 83.3511 7.55412C83.47 7.72248 83.6351 7.87789 83.8463 8.02035C84.0708 8.14985 84.3217 8.27288 84.599 8.38944C84.8895 8.49304 85.2065 8.60312 85.5498 8.71968C86.2629 8.97869 86.8835 9.23771 87.4117 9.49672C87.9399 9.74278 88.3757 10.0342 88.719 10.3709C89.0755 10.7076 89.3396 11.1026 89.5113 11.5559C89.683 12.0091 89.7688 12.5595 89.7688 13.2071C89.7688 14.4633 89.3198 15.4411 88.4219 16.1404C87.5239 16.8268 86.1704 17.17 84.3613 17.17C83.7539 17.17 83.2059 17.1311 82.7173 17.0534C82.2287 16.9887 81.793 16.9045 81.41 16.8009C81.0403 16.6973 80.7167 16.5872 80.4394 16.4706C80.1753 16.3541 79.9509 16.244 79.766 16.1404L80.6375 13.7316C81.0469 13.9517 81.5487 14.1525 82.1429 14.3338C82.7503 14.5021 83.4898 14.5863 84.3613 14.5863Z" fill="#2A3342"/>
<path d="M101.256 17.1894C100.899 17.1894 100.523 17.1635 100.127 17.1117C99.7304 17.0728 99.3474 17.0146 98.9777 16.9369C98.6079 16.8592 98.2712 16.775 97.9675 16.6843C97.6638 16.5937 97.4261 16.5095 97.2544 16.4318L97.8288 14.023C98.1722 14.1654 98.6079 14.3208 99.1361 14.4892C99.6775 14.6446 100.344 14.7223 101.137 14.7223C102.048 14.7223 102.715 14.5539 103.137 14.2172C103.56 13.8805 103.771 13.4272 103.771 12.8574C103.771 12.5077 103.692 12.2164 103.533 11.9832C103.388 11.7372 103.183 11.5429 102.919 11.4005C102.655 11.2451 102.338 11.1415 101.969 11.0896C101.612 11.0249 101.229 10.9925 100.82 10.9925H99.6709V8.6614H100.978C101.269 8.6614 101.546 8.6355 101.81 8.5837C102.087 8.5319 102.332 8.44772 102.543 8.33116C102.754 8.20165 102.919 8.0333 103.038 7.82609C103.17 7.60592 103.236 7.33396 103.236 7.01019C103.236 6.76413 103.183 6.55045 103.078 6.36914C102.972 6.18783 102.834 6.0389 102.662 5.92234C102.503 5.80578 102.312 5.72161 102.087 5.6698C101.876 5.60505 101.658 5.57267 101.434 5.57267C100.866 5.57267 100.338 5.65685 99.8492 5.82521C99.3738 5.99357 98.9381 6.20078 98.5419 6.44684L97.4921 4.32941C97.7034 4.1999 97.9477 4.06392 98.225 3.92146C98.5155 3.77901 98.8324 3.6495 99.1757 3.53295C99.5191 3.41639 99.8822 3.31926 100.265 3.24156C100.661 3.16385 101.077 3.125 101.513 3.125C102.319 3.125 103.012 3.22213 103.593 3.41639C104.187 3.5977 104.676 3.86319 105.059 4.21285C105.442 4.54957 105.725 4.95104 105.91 5.41727C106.095 5.87054 106.188 6.36914 106.188 6.91307C106.188 7.44404 106.036 7.96207 105.732 8.46714C105.428 8.95927 105.019 9.33484 104.504 9.59385C105.217 9.87876 105.765 10.3061 106.148 10.876C106.544 11.4328 106.742 12.1063 106.742 12.8963C106.742 13.5179 106.637 14.0942 106.425 14.6252C106.214 15.1432 105.884 15.5965 105.435 15.985C104.986 16.3606 104.412 16.6584 103.712 16.8786C103.025 17.0858 102.206 17.1894 101.256 17.1894Z" fill="#2A3342"/>
<path d="M112.513 17.1894C112.157 17.1894 111.78 17.1635 111.384 17.1117C110.988 17.0728 110.605 17.0146 110.235 16.9369C109.866 16.8592 109.529 16.775 109.225 16.6843C108.922 16.5937 108.684 16.5095 108.512 16.4318L109.087 14.023C109.43 14.1654 109.866 14.3208 110.394 14.4892C110.935 14.6446 111.602 14.7223 112.394 14.7223C113.306 14.7223 113.972 14.5539 114.395 14.2172C114.818 13.8805 115.029 13.4272 115.029 12.8574C115.029 12.5077 114.95 12.2164 114.791 11.9832C114.646 11.7372 114.441 11.5429 114.177 11.4005C113.913 11.2451 113.596 11.1415 113.226 11.0896C112.87 11.0249 112.487 10.9925 112.078 10.9925H110.929V8.6614H112.236C112.527 8.6614 112.804 8.6355 113.068 8.5837C113.345 8.5319 113.59 8.44772 113.801 8.33116C114.012 8.20165 114.177 8.0333 114.296 7.82609C114.428 7.60592 114.494 7.33396 114.494 7.01019C114.494 6.76413 114.441 6.55045 114.336 6.36914C114.23 6.18783 114.091 6.0389 113.92 5.92234C113.761 5.80578 113.57 5.72161 113.345 5.6698C113.134 5.60505 112.916 5.57267 112.692 5.57267C112.124 5.57267 111.596 5.65685 111.107 5.82521C110.632 5.99357 110.196 6.20078 109.8 6.44684L108.75 4.32941C108.961 4.1999 109.205 4.06392 109.483 3.92146C109.773 3.77901 110.09 3.6495 110.434 3.53295C110.777 3.41639 111.14 3.31926 111.523 3.24156C111.919 3.16385 112.335 3.125 112.771 3.125C113.576 3.125 114.27 3.22213 114.851 3.41639C115.445 3.5977 115.933 3.86319 116.316 4.21285C116.699 4.54957 116.983 4.95104 117.168 5.41727C117.353 5.87054 117.445 6.36914 117.445 6.91307C117.445 7.44404 117.294 7.96207 116.99 8.46714C116.686 8.95927 116.277 9.33484 115.762 9.59385C116.475 9.87876 117.023 10.3061 117.406 10.876C117.802 11.4328 118 12.1063 118 12.8963C118 13.5179 117.894 14.0942 117.683 14.6252C117.472 15.1432 117.142 15.5965 116.693 15.985C116.244 16.3606 115.669 16.6584 114.969 16.8786C114.283 17.0858 113.464 17.1894 112.513 17.1894Z" fill="#2A3342"/>
<path d="M8.98531 5.06777C12.5936 6.33471 16.4849 6.26433 20.0578 4.89181C20.0931 3.4489 19.704 2.00599 19.0319 0.703858L18.6781 0C18.572 0.0351929 18.4305 0.105585 18.3597 0.17597C15.1052 1.72446 11.4262 1.93561 7.9948 0.703863C5.58929 -0.140765 2.97152 0.0703901 0.707504 1.19656L0 1.54849C0.0353752 1.65407 0.106134 1.79484 0.176884 1.86522C0.601387 2.78024 0.955135 3.76564 1.20276 4.78623C3.67903 4.08237 6.43829 4.15276 8.98531 5.06777Z" fill="#3B82F6"/>
<path d="M0.176787 15.6609L0.955035 15.2386C2.53197 14.4542 4.27162 14.0745 5.99769 14.1245C7.05952 14.1553 8.11622 14.3488 9.12672 14.7107C9.45589 14.8269 9.78612 14.9335 10.1172 15.0308L10.1172 18.782C8.74756 18.5287 7.36102 18.4925 5.99769 18.6671C4.58348 18.8482 3.19425 19.2562 1.87479 19.884C1.80404 19.9544 1.66254 20.0248 1.55641 20.06L1.20266 19.3561C0.601282 18.1948 0.247537 16.9278 0.176787 15.6609Z" fill="#3B82F6"/>
<path d="M0.601518 12.4231C3.60841 11.1913 6.96907 11.0857 10.0467 12.1767C12.8767 13.1621 15.8836 13.3381 18.7136 12.7046C18.6783 11.1209 18.8905 9.57245 19.4565 8.02396C15.7421 9.11494 11.7447 9.00937 8.03033 7.70724C5.90781 6.93299 3.57304 6.933 1.45052 7.63685C1.4859 9.15015 1.20291 10.6986 0.672279 12.2119C0.672279 12.2119 0.636894 12.3175 0.601518 12.4231Z" fill="#3B82F6"/>
</svg>
