<svg width="151" height="26" viewBox="0 0 151 26" fill="none" xmlns="http://www.w3.org/2000/svg">
<path d="M46.1719 21.9728C43.3161 21.9728 41.1363 21.1939 39.6324 19.6361C38.1454 18.0783 37.4019 15.8659 37.4019 12.9988C37.4019 11.5736 37.63 10.3058 38.0862 9.19546C38.5425 8.06853 39.1677 7.1239 39.9619 6.36157C40.7561 5.58267 41.7024 4.99435 42.8007 4.59661C43.8991 4.19887 45.0904 4 46.3747 4C47.1182 4 47.7941 4.058 48.4024 4.17401C49.0107 4.27345 49.543 4.39774 49.9993 4.54689C50.4555 4.67947 50.8357 4.82034 51.1399 4.96949C51.444 5.11864 51.6637 5.23465 51.7989 5.31751L50.6583 8.4497C50.1176 8.16797 49.4839 7.92767 48.7573 7.7288C48.0476 7.52993 47.2365 7.43049 46.324 7.43049C45.7156 7.43049 45.1158 7.52993 44.5243 7.7288C43.9498 7.92767 43.4344 8.25083 42.9782 8.69829C42.5388 9.12917 42.184 9.69263 41.9136 10.3887C41.6432 11.0847 41.5081 11.9299 41.5081 12.9243C41.5081 13.7197 41.5925 14.4655 41.7615 15.1615C41.9474 15.841 42.2347 16.4293 42.6233 16.9265C43.0289 17.4237 43.5527 17.8214 44.1948 18.1197C44.8369 18.4014 45.6143 18.5423 46.5267 18.5423C47.1013 18.5423 47.6167 18.5092 48.0729 18.4429C48.5291 18.3766 48.9347 18.302 49.2896 18.2191C49.6444 18.1197 49.957 18.012 50.2274 17.896C50.4978 17.78 50.7428 17.6723 50.9625 17.5728L52.0524 20.6802C51.4947 21.0116 50.709 21.3099 49.6951 21.5751C48.6812 21.8402 47.5068 21.9728 46.1719 21.9728Z" fill="white"/>
<path d="M66.3338 18.2937V21.6248H54.5982V4.39774H58.5523V18.2937H66.3338Z" fill="white"/>
<path d="M81.4336 21.6248C81.2477 21.0282 81.0365 20.415 80.7999 19.7852C80.5803 19.1555 80.3606 18.5257 80.1409 17.896H73.2972C73.0776 18.5257 72.8494 19.1555 72.6129 19.7852C72.3932 20.415 72.1904 21.0282 72.0045 21.6248H67.8983C68.5574 19.7687 69.1826 18.0534 69.774 16.479C70.3654 14.9047 70.94 13.4214 71.4976 12.0293C72.0721 10.6373 72.6298 9.31975 73.1705 8.07682C73.7281 6.81731 74.3027 5.59095 74.8941 4.39774H78.6708C79.2453 5.59095 79.8114 6.81731 80.369 8.07682C80.9267 9.31975 81.4843 10.6373 82.0419 12.0293C82.6165 13.4214 83.1994 14.9047 83.7909 16.479C84.3823 18.0534 85.0075 19.7687 85.6665 21.6248H81.4336ZM76.6937 8.30055C76.6092 8.54913 76.4825 8.88887 76.3135 9.31975C76.1445 9.75064 75.9502 10.2478 75.7305 10.8113C75.5109 11.3747 75.2658 11.9962 74.9955 12.6757C74.742 13.3551 74.4801 14.0678 74.2097 14.8135H79.2031C78.9327 14.0678 78.6708 13.3551 78.4173 12.6757C78.1638 11.9962 77.9188 11.3747 77.6823 10.8113C77.4626 10.2478 77.2683 9.75064 77.0993 9.31975C76.9303 8.88887 76.7951 8.54913 76.6937 8.30055Z" fill="white"/>
<path d="M93.2011 18.6666C93.7587 18.6666 94.215 18.6252 94.5698 18.5423C94.9416 18.4429 95.2373 18.3186 95.457 18.1694C95.6766 18.0037 95.8287 17.8131 95.9132 17.5977C95.9977 17.3822 96.04 17.1419 96.04 16.8768C96.04 16.3133 95.7696 15.8493 95.2289 15.4847C94.6881 15.1035 93.7587 14.6975 92.4407 14.2666C91.8662 14.0678 91.2916 13.844 90.7171 13.5954C90.1426 13.3303 89.6272 13.0071 89.1709 12.626C88.7147 12.2282 88.3429 11.7559 88.0557 11.209C87.7684 10.6455 87.6248 9.96608 87.6248 9.1706C87.6248 8.37512 87.7769 7.66251 88.081 7.03276C88.3852 6.38643 88.8161 5.83954 89.3737 5.39208C89.9313 4.94463 90.6073 4.60489 91.4015 4.37288C92.1957 4.12429 93.0913 4 94.0882 4C95.2711 4 96.2934 4.12429 97.1552 4.37288C98.017 4.62147 98.7267 4.89491 99.2844 5.19322L98.1437 8.25083C97.6537 8.00224 97.1045 7.7868 96.4962 7.60451C95.9048 7.40564 95.1866 7.3062 94.3417 7.3062C93.3954 7.3062 92.7111 7.43878 92.2886 7.70394C91.8831 7.95253 91.6803 8.34198 91.6803 8.8723C91.6803 9.18717 91.7563 9.45233 91.9084 9.66777C92.0605 9.88321 92.2717 10.0821 92.5421 10.2644C92.8293 10.4301 93.1504 10.5875 93.5053 10.7367C93.877 10.8693 94.2826 11.0101 94.7219 11.1593C95.6344 11.4907 96.4286 11.8222 97.1045 12.1536C97.7804 12.4685 98.3381 12.8414 98.7774 13.2723C99.2337 13.7032 99.5716 14.2086 99.7913 14.7887C100.011 15.3687 100.121 16.073 100.121 16.9016C100.121 18.5092 99.5463 19.7604 98.3972 20.6553C97.2482 21.5336 95.5161 21.9728 93.2011 21.9728C92.4238 21.9728 91.7225 21.9231 91.0973 21.8237C90.4721 21.7408 89.9144 21.6331 89.4244 21.5005C88.9513 21.3679 88.5373 21.227 88.1824 21.0779C87.8444 20.9287 87.5572 20.7879 87.3206 20.6553L88.4359 17.5728C88.9597 17.8546 89.6018 18.1114 90.3622 18.3434C91.1396 18.5589 92.0858 18.6666 93.2011 18.6666Z" fill="white"/>
<path d="M107.954 18.6666C108.511 18.6666 108.968 18.6252 109.323 18.5423C109.694 18.4429 109.99 18.3186 110.21 18.1694C110.429 18.0037 110.581 17.8131 110.666 17.5977C110.75 17.3822 110.793 17.1419 110.793 16.8768C110.793 16.3133 110.522 15.8493 109.982 15.4847C109.441 15.1035 108.511 14.6975 107.193 14.2666C106.619 14.0678 106.044 13.844 105.47 13.5954C104.895 13.3303 104.38 13.0071 103.924 12.626C103.467 12.2282 103.096 11.7559 102.808 11.209C102.521 10.6455 102.377 9.96608 102.377 9.1706C102.377 8.37512 102.53 7.66251 102.834 7.03276C103.138 6.38643 103.569 5.83954 104.126 5.39208C104.684 4.94463 105.36 4.60489 106.154 4.37288C106.948 4.12429 107.844 4 108.841 4C110.024 4 111.046 4.12429 111.908 4.37288C112.77 4.62147 113.479 4.89491 114.037 5.19322L112.896 8.25083C112.406 8.00224 111.857 7.7868 111.249 7.60451C110.657 7.40564 109.939 7.3062 109.094 7.3062C108.148 7.3062 107.464 7.43878 107.041 7.70394C106.636 7.95253 106.433 8.34198 106.433 8.8723C106.433 9.18717 106.509 9.45233 106.661 9.66777C106.813 9.88321 107.024 10.0821 107.295 10.2644C107.582 10.4301 107.903 10.5875 108.258 10.7367C108.63 10.8693 109.035 11.0101 109.475 11.1593C110.387 11.4907 111.181 11.8222 111.857 12.1536C112.533 12.4685 113.091 12.8414 113.53 13.2723C113.986 13.7032 114.324 14.2086 114.544 14.7887C114.764 15.3687 114.874 16.073 114.874 16.9016C114.874 18.5092 114.299 19.7604 113.15 20.6553C112.001 21.5336 110.269 21.9728 107.954 21.9728C107.176 21.9728 106.475 21.9231 105.85 21.8237C105.225 21.7408 104.667 21.6331 104.177 21.5005C103.704 21.3679 103.29 21.227 102.935 21.0779C102.597 20.9287 102.31 20.7879 102.073 20.6553L103.189 17.5728C103.712 17.8546 104.355 18.1114 105.115 18.3434C105.892 18.5589 106.839 18.6666 107.954 18.6666Z" fill="white"/>
<path d="M129.573 21.9977C129.116 21.9977 128.635 21.9645 128.128 21.8982C127.621 21.8485 127.131 21.7739 126.658 21.6745C126.185 21.5751 125.754 21.4673 125.365 21.3513C124.976 21.2353 124.672 21.1276 124.453 21.0282L125.188 17.9457C125.627 18.128 126.185 18.3269 126.861 18.5423C127.553 18.7412 128.407 18.8406 129.421 18.8406C130.587 18.8406 131.44 18.6252 131.981 18.1943C132.521 17.7634 132.792 17.1834 132.792 16.4542C132.792 16.0067 132.69 15.6339 132.488 15.3355C132.302 15.0207 132.04 14.7721 131.702 14.5898C131.364 14.3909 130.958 14.2583 130.485 14.192C130.029 14.1092 129.539 14.0678 129.015 14.0678H127.545V11.0847H129.218C129.59 11.0847 129.944 11.0516 130.282 10.9853C130.637 10.919 130.95 10.8113 131.22 10.6621C131.491 10.4964 131.702 10.281 131.854 10.0158C132.023 9.73406 132.107 9.38604 132.107 8.97173C132.107 8.65686 132.04 8.38341 131.905 8.15139C131.769 7.91938 131.592 7.7288 131.372 7.57965C131.17 7.4305 130.924 7.32277 130.637 7.25648C130.367 7.17362 130.088 7.13219 129.801 7.13219C129.074 7.13219 128.398 7.23991 127.773 7.45535C127.165 7.67079 126.607 7.93595 126.1 8.25083L124.757 5.54124C125.027 5.37551 125.34 5.2015 125.695 5.0192C126.066 4.83691 126.472 4.67118 126.911 4.52203C127.351 4.37288 127.815 4.24859 128.305 4.14915C128.812 4.04972 129.345 4 129.902 4C130.933 4 131.82 4.12429 132.564 4.37288C133.324 4.60489 133.949 4.94463 134.439 5.39208C134.929 5.82297 135.293 6.33671 135.529 6.93332C135.766 7.51336 135.884 8.1514 135.884 8.84744C135.884 9.52691 135.69 10.1898 135.301 10.8361C134.912 11.4659 134.389 11.9465 133.73 12.2779C134.642 12.6425 135.343 13.1894 135.833 13.9186C136.34 14.6312 136.594 15.493 136.594 16.5039C136.594 17.2994 136.459 18.0369 136.188 18.7163C135.918 19.3792 135.495 19.9593 134.921 20.4564C134.346 20.937 133.611 21.3182 132.716 21.5999C131.837 21.8651 130.789 21.9977 129.573 21.9977Z" fill="white"/>
<path d="M143.979 21.9977C143.523 21.9977 143.041 21.9645 142.534 21.8982C142.027 21.8485 141.537 21.7739 141.064 21.6745C140.591 21.5751 140.16 21.4673 139.771 21.3513C139.383 21.2353 139.078 21.1276 138.859 21.0282L139.594 17.9457C140.033 18.128 140.591 18.3269 141.267 18.5423C141.96 18.7412 142.813 18.8406 143.827 18.8406C144.993 18.8406 145.846 18.6252 146.387 18.1943C146.927 17.7634 147.198 17.1834 147.198 16.4542C147.198 16.0067 147.096 15.6339 146.894 15.3355C146.708 15.0207 146.446 14.7721 146.108 14.5898C145.77 14.3909 145.364 14.2583 144.891 14.192C144.435 14.1092 143.945 14.0678 143.421 14.0678H141.951V11.0847H143.624C143.996 11.0847 144.351 11.0516 144.689 10.9853C145.043 10.919 145.356 10.8113 145.626 10.6621C145.897 10.4964 146.108 10.281 146.26 10.0158C146.429 9.73406 146.513 9.38604 146.513 8.97173C146.513 8.65686 146.446 8.38341 146.311 8.15139C146.176 7.91938 145.998 7.7288 145.778 7.57965C145.576 7.4305 145.331 7.32277 145.043 7.25648C144.773 7.17362 144.494 7.13219 144.207 7.13219C143.48 7.13219 142.804 7.23991 142.179 7.45535C141.571 7.67079 141.013 7.93595 140.506 8.25083L139.163 5.54124C139.433 5.37551 139.746 5.2015 140.101 5.0192C140.472 4.83691 140.878 4.67118 141.317 4.52203C141.757 4.37288 142.221 4.24859 142.711 4.14915C143.218 4.04972 143.751 4 144.308 4C145.339 4 146.226 4.12429 146.97 4.37288C147.73 4.60489 148.355 4.94463 148.845 5.39208C149.335 5.82297 149.699 6.33671 149.935 6.93332C150.172 7.51336 150.29 8.1514 150.29 8.84744C150.29 9.52691 150.096 10.1898 149.707 10.8361C149.319 11.4659 148.795 11.9465 148.136 12.2779C149.048 12.6425 149.749 13.1894 150.239 13.9186C150.746 14.6312 151 15.493 151 16.5039C151 17.2994 150.865 18.0369 150.594 18.7163C150.324 19.3792 149.902 19.9593 149.327 20.4564C148.752 20.937 148.017 21.3182 147.122 21.5999C146.243 21.8651 145.195 21.9977 143.979 21.9977Z" fill="white"/>
<path d="M11.4982 6.48503C16.1155 8.10628 21.095 8.01622 25.6671 6.25986C25.7124 4.41343 25.2144 2.56699 24.3543 0.900699L23.9017 0C23.7659 0.0450349 23.5848 0.135113 23.4942 0.225183C19.3296 2.20672 14.6217 2.47693 10.2306 0.900706C7.15239 -0.180132 3.80254 0.0900755 0.905366 1.53119L0 1.98154C0.0452683 2.11665 0.135815 2.29678 0.226352 2.38685C0.769571 3.55776 1.22225 4.81874 1.53913 6.12475C4.70791 5.22406 8.23883 5.31412 11.4982 6.48503Z" fill="white"/>
<path d="M0.226227 20.0406L1.22212 19.5002C3.24006 18.4964 5.46623 18.0105 7.67501 18.0746C9.0338 18.114 10.386 18.3615 11.6791 18.8247C12.1003 18.9734 12.5229 19.1099 12.9466 19.2343L12.9466 24.0346C11.1939 23.7105 9.4196 23.6641 7.67501 23.8876C5.8653 24.1194 4.08755 24.6414 2.3991 25.4448C2.30856 25.5349 2.12749 25.6249 1.99168 25.67L1.539 24.7693C0.769437 23.2831 0.316763 21.6619 0.226227 20.0406Z" fill="white"/>
<path d="M0.769739 15.8973C4.61755 14.3211 8.91804 14.186 12.8564 15.5821C16.4779 16.8431 20.3257 17.0682 23.9471 16.2576C23.9019 14.231 24.1735 12.2495 24.8978 10.268C20.1446 11.664 15.0293 11.5289 10.2761 9.86265C7.55999 8.87188 4.57228 8.87188 1.85618 9.77258C1.90145 11.7091 1.53931 13.6906 0.860289 15.6271C0.860289 15.6271 0.815008 15.7622 0.769739 15.8973Z" fill="white"/>
</svg>
