<svg width="200" height="52" viewBox="0 0 200 52" fill="none" xmlns="http://www.w3.org/2000/svg">
<path d="M61.155 24.7025C57.3726 24.7025 54.4854 23.6709 52.4934 21.6075C50.5238 19.5442 49.5391 16.6139 49.5391 12.8165C49.5391 10.9287 49.8412 9.24954 50.4455 7.77887C51.0498 6.28625 51.8779 5.03509 52.9298 4.02538C53.9818 2.99371 55.2351 2.21448 56.6899 1.68767C58.1447 1.16086 59.7226 0.897461 61.4236 0.897461C62.4084 0.897461 63.3036 0.974287 64.1094 1.12794C64.9151 1.25964 65.6201 1.42427 66.2244 1.62182C66.8287 1.79742 67.3323 1.984 67.7351 2.18155C68.138 2.37911 68.429 2.53276 68.608 2.64251L67.0973 6.79111C66.3811 6.41795 65.5418 6.09968 64.5794 5.83627C63.6393 5.57287 62.565 5.44117 61.3564 5.44117C60.5507 5.44117 59.7562 5.57287 58.9728 5.83627C58.2119 6.09968 57.5292 6.52771 56.9249 7.12036C56.343 7.69107 55.873 8.43738 55.5149 9.35929C55.1568 10.2812 54.9777 11.4007 54.9777 12.7177C54.9777 13.7713 55.0897 14.7591 55.3135 15.681C55.5597 16.5809 55.9401 17.3602 56.4549 18.0187C56.9921 18.6772 57.6859 19.204 58.5364 19.5991C59.3869 19.9722 60.4164 20.1588 61.625 20.1588C62.386 20.1588 63.0686 20.1149 63.6729 20.0271C64.2772 19.9393 64.8144 19.8405 65.2844 19.7308C65.7544 19.5991 66.1684 19.4564 66.5265 19.3028C66.8847 19.1491 67.2092 19.0064 67.5001 18.8747L68.9437 22.9904C68.2052 23.4294 67.1644 23.8245 65.8215 24.1757C64.4786 24.5269 62.9231 24.7025 61.155 24.7025Z" fill="#2A3342"/>
<path d="M87.8595 19.8296V24.2416H72.3156V1.42427H77.5529V19.8296H87.8595Z" fill="#2A3342"/>
<path d="M107.859 24.2416C107.613 23.4514 107.333 22.6392 107.02 21.8051C106.729 20.971 106.438 20.1369 106.147 19.3028H97.0827C96.7917 20.1369 96.4896 20.971 96.1762 21.8051C95.8853 22.6392 95.6167 23.4514 95.3705 24.2416H89.9318C90.8047 21.7831 91.6328 19.5113 92.4162 17.426C93.1995 15.3407 93.9605 13.3762 94.6991 11.5324C95.46 9.68854 96.1986 7.9435 96.9148 6.29723C97.6534 4.62901 98.4144 3.00469 99.1977 1.42427H104.2C104.961 3.00469 105.711 4.62901 106.449 6.29723C107.188 7.9435 107.926 9.68854 108.665 11.5324C109.426 13.3762 110.198 15.3407 110.982 17.426C111.765 19.5113 112.593 21.7831 113.466 24.2416H107.859ZM101.581 6.59356C101.469 6.92281 101.302 7.37279 101.078 7.9435C100.854 8.51421 100.597 9.17271 100.306 9.91902C100.015 10.6653 99.6901 11.4885 99.332 12.3884C98.9963 13.2884 98.6494 14.2323 98.2913 15.22H104.905C104.547 14.2323 104.2 13.2884 103.864 12.3884C103.529 11.4885 103.204 10.6653 102.891 9.91902C102.6 9.17271 102.342 8.51421 102.118 7.9435C101.895 7.37279 101.716 6.92281 101.581 6.59356Z" fill="#2A3342"/>
<path d="M123.445 20.3235C124.184 20.3235 124.788 20.2686 125.258 20.1588C125.751 20.0271 126.142 19.8625 126.433 19.6649C126.724 19.4454 126.926 19.193 127.038 18.9077C127.15 18.6223 127.206 18.304 127.206 17.9528C127.206 17.2065 126.847 16.5919 126.131 16.109C125.415 15.6041 124.184 15.0664 122.438 14.4957C121.677 14.2323 120.916 13.9359 120.155 13.6067C119.394 13.2555 118.712 12.8274 118.107 12.3226C117.503 11.7958 117.011 11.1702 116.63 10.4458C116.25 9.69952 116.06 8.79956 116.06 7.74595C116.06 6.69233 116.261 5.74847 116.664 4.91436C117.067 4.0583 117.637 3.33394 118.376 2.74128C119.115 2.14863 120.01 1.69865 121.062 1.39134C122.114 1.06209 123.3 0.897461 124.62 0.897461C126.187 0.897461 127.541 1.06209 128.683 1.39134C129.824 1.7206 130.764 2.08278 131.503 2.47788L129.992 6.52771C129.343 6.19845 128.616 5.9131 127.81 5.67165C127.026 5.40824 126.075 5.27654 124.956 5.27654C123.703 5.27654 122.796 5.45214 122.237 5.80335C121.7 6.1326 121.431 6.64843 121.431 7.35084C121.431 7.7679 121.532 8.1191 121.733 8.40445C121.935 8.68981 122.214 8.95321 122.573 9.19466C122.953 9.41417 123.378 9.62269 123.848 9.82025C124.341 9.99585 124.878 10.1824 125.46 10.38C126.668 10.819 127.72 11.258 128.616 11.697C129.511 12.114 130.249 12.6079 130.831 13.1786C131.436 13.7493 131.883 14.4188 132.174 15.1871C132.465 15.9553 132.611 16.8882 132.611 17.9857C132.611 20.1149 131.85 21.7722 130.328 22.9575C128.806 24.1208 126.512 24.7025 123.445 24.7025C122.416 24.7025 121.487 24.6367 120.659 24.505C119.831 24.3952 119.092 24.2525 118.443 24.0769C117.817 23.9013 117.268 23.7148 116.798 23.5172C116.351 23.3197 115.97 23.1331 115.657 22.9575L117.134 18.8747C117.828 19.2479 118.678 19.5881 119.685 19.8954C120.715 20.1808 121.968 20.3235 123.445 20.3235Z" fill="#2A3342"/>
<path d="M142.985 20.3235C143.724 20.3235 144.328 20.2686 144.798 20.1588C145.291 20.0271 145.682 19.8625 145.973 19.6649C146.264 19.4454 146.466 19.193 146.578 18.9077C146.69 18.6223 146.746 18.304 146.746 17.9528C146.746 17.2065 146.387 16.5919 145.671 16.109C144.955 15.6041 143.724 15.0664 141.978 14.4957C141.217 14.2323 140.456 13.9359 139.695 13.6067C138.934 13.2555 138.252 12.8274 137.647 12.3226C137.043 11.7958 136.551 11.1702 136.17 10.4458C135.79 9.69952 135.6 8.79956 135.6 7.74595C135.6 6.69233 135.801 5.74847 136.204 4.91436C136.607 4.0583 137.177 3.33394 137.916 2.74128C138.655 2.14863 139.55 1.69865 140.602 1.39134C141.654 1.06209 142.84 0.897461 144.16 0.897461C145.727 0.897461 147.081 1.06209 148.223 1.39134C149.364 1.7206 150.304 2.08278 151.043 2.47788L149.532 6.52771C148.883 6.19845 148.156 5.9131 147.35 5.67165C146.566 5.40824 145.615 5.27654 144.496 5.27654C143.243 5.27654 142.336 5.45214 141.777 5.80335C141.24 6.1326 140.971 6.64843 140.971 7.35084C140.971 7.7679 141.072 8.1191 141.273 8.40445C141.475 8.68981 141.754 8.95321 142.113 9.19466C142.493 9.41417 142.918 9.62269 143.388 9.82025C143.881 9.99585 144.418 10.1824 145 10.38C146.208 10.819 147.26 11.258 148.156 11.697C149.051 12.114 149.789 12.6079 150.371 13.1786C150.976 13.7493 151.423 14.4188 151.714 15.1871C152.005 15.9553 152.151 16.8882 152.151 17.9857C152.151 20.1149 151.39 21.7722 149.868 22.9575C148.346 24.1208 146.052 24.7025 142.985 24.7025C141.956 24.7025 141.027 24.6367 140.199 24.505C139.371 24.3952 138.632 24.2525 137.983 24.0769C137.357 23.9013 136.808 23.7148 136.338 23.5172C135.891 23.3197 135.51 23.1331 135.197 22.9575L136.674 18.8747C137.368 19.2479 138.218 19.5881 139.225 19.8954C140.255 20.1808 141.508 20.3235 142.985 20.3235Z" fill="#2A3342"/>
<path d="M171.62 24.7355C171.015 24.7355 170.378 24.6916 169.706 24.6038C169.035 24.5379 168.386 24.4391 167.759 24.3074C167.132 24.1757 166.562 24.033 166.047 23.8794C165.532 23.7257 165.129 23.5831 164.838 23.4514L165.812 19.3686C166.394 19.6101 167.132 19.8735 168.028 20.1588C168.945 20.4222 170.075 20.5539 171.418 20.5539C172.963 20.5539 174.093 20.2686 174.809 19.6979C175.525 19.1272 175.883 18.3589 175.883 17.3931C175.883 16.8004 175.749 16.3066 175.481 15.9114C175.234 15.4944 174.887 15.1651 174.44 14.9237C173.992 14.6603 173.455 14.4847 172.828 14.3969C172.224 14.2871 171.575 14.2323 170.881 14.2323H168.934V10.2812H171.15C171.642 10.2812 172.112 10.2373 172.56 10.1495C173.03 10.0617 173.444 9.91902 173.802 9.72147C174.16 9.50197 174.44 9.21661 174.641 8.86541C174.865 8.49226 174.977 8.0313 174.977 7.48254C174.977 7.06549 174.887 6.70331 174.708 6.396C174.529 6.0887 174.294 5.83627 174.003 5.63872C173.735 5.44117 173.41 5.29849 173.03 5.21069C172.672 5.10094 172.302 5.04606 171.922 5.04606C170.959 5.04606 170.064 5.18874 169.236 5.47409C168.43 5.75945 167.692 6.11065 167.02 6.52771L165.241 2.93884C165.599 2.71933 166.013 2.48886 166.483 2.2474C166.976 2.00595 167.513 1.78645 168.095 1.5889C168.677 1.39134 169.292 1.22672 169.941 1.09501C170.613 0.963312 171.318 0.897461 172.056 0.897461C173.421 0.897461 174.596 1.06209 175.581 1.39134C176.588 1.69865 177.417 2.14863 178.066 2.74128C178.715 3.31199 179.196 3.99245 179.509 4.78266C179.823 5.55092 179.979 6.396 179.979 7.31792C179.979 8.21788 179.722 9.09589 179.207 9.95195C178.692 10.7861 177.998 11.4226 177.126 11.8616C178.334 12.3445 179.263 13.0689 179.912 14.0347C180.583 14.9786 180.919 16.12 180.919 17.4589C180.919 18.5126 180.74 19.4893 180.382 20.3893C180.024 21.2673 179.464 22.0356 178.703 22.6941C177.942 23.3306 176.969 23.8355 175.783 24.2086C174.619 24.5599 173.231 24.7355 171.62 24.7355Z" fill="#2A3342"/>
<path d="M190.701 24.7355C190.096 24.7355 189.459 24.6916 188.787 24.6038C188.116 24.5379 187.467 24.4391 186.84 24.3074C186.213 24.1757 185.643 24.033 185.128 23.8794C184.613 23.7257 184.21 23.5831 183.919 23.4514L184.893 19.3686C185.475 19.6101 186.213 19.8735 187.109 20.1588C188.026 20.4222 189.156 20.5539 190.499 20.5539C192.044 20.5539 193.174 20.2686 193.89 19.6979C194.606 19.1272 194.964 18.3589 194.964 17.3931C194.964 16.8004 194.83 16.3066 194.562 15.9114C194.315 15.4944 193.968 15.1651 193.521 14.9237C193.073 14.6603 192.536 14.4847 191.909 14.3969C191.305 14.2871 190.656 14.2323 189.962 14.2323H188.015V10.2812H190.231C190.723 10.2812 191.193 10.2373 191.641 10.1495C192.111 10.0617 192.525 9.91902 192.883 9.72147C193.241 9.50197 193.521 9.21661 193.722 8.86541C193.946 8.49226 194.058 8.0313 194.058 7.48254C194.058 7.06549 193.968 6.70331 193.789 6.396C193.61 6.0887 193.375 5.83627 193.084 5.63872C192.816 5.44117 192.491 5.29849 192.111 5.21069C191.753 5.10094 191.383 5.04606 191.003 5.04606C190.04 5.04606 189.145 5.18874 188.317 5.47409C187.511 5.75945 186.773 6.11065 186.101 6.52771L184.322 2.93884C184.68 2.71933 185.094 2.48886 185.564 2.2474C186.057 2.00595 186.594 1.78645 187.176 1.5889C187.758 1.39134 188.373 1.22672 189.022 1.09501C189.694 0.963312 190.399 0.897461 191.137 0.897461C192.502 0.897461 193.677 1.06209 194.662 1.39134C195.669 1.69865 196.498 2.14863 197.147 2.74128C197.796 3.31199 198.277 3.99245 198.59 4.78266C198.904 5.55092 199.06 6.396 199.06 7.31792C199.06 8.21788 198.803 9.09589 198.288 9.95195C197.773 10.7861 197.079 11.4226 196.207 11.8616C197.415 12.3445 198.344 13.0689 198.993 14.0347C199.665 14.9786 200 16.12 200 17.4589C200 18.5126 199.821 19.4893 199.463 20.3893C199.105 21.2673 198.545 22.0356 197.784 22.6941C197.023 23.3306 196.05 23.8355 194.864 24.2086C193.7 24.5599 192.312 24.7355 190.701 24.7355Z" fill="#2A3342"/>
<path d="M15.2294 8.58945C21.3451 10.7368 27.9405 10.6175 33.9962 8.29121C34.0562 5.8456 33.3967 3.39999 32.2574 1.19298L31.6579 0C31.478 0.059649 31.2382 0.178957 31.1182 0.298255C25.6021 2.92281 19.3665 3.2807 13.5505 1.19299C9.47338 -0.238585 5.03648 0.119305 1.19916 2.02807L0 2.62456C0.0599581 2.80351 0.179888 3.0421 0.299804 3.16139C1.0193 4.71227 1.61887 6.38244 2.03858 8.11226C6.23565 6.91929 10.9124 7.03858 15.2294 8.58945Z" fill="#3B82F6"/>
<path d="M0.299639 26.5439L1.6187 25.8281C4.29147 24.4986 7.24004 23.855 10.1656 23.9399C11.9653 23.9921 13.7563 24.3199 15.469 24.9333C16.0269 25.1303 16.5867 25.3111 17.1478 25.4759L17.1478 31.834C14.8264 31.4046 12.4763 31.3433 10.1656 31.6392C7.76861 31.9462 5.41398 32.6377 3.17762 33.7017C3.0577 33.821 2.81787 33.9403 2.63799 34L2.03841 32.807C1.01912 30.8386 0.419555 28.6912 0.299639 26.5439Z" fill="#3B82F6"/>
<path d="M1.01952 21.0561C6.11596 18.9684 11.812 18.7894 17.0283 20.6385C21.825 22.3087 26.9214 22.607 31.7181 21.5333C31.6581 18.8491 32.0179 16.2245 32.9772 13.6C26.6816 15.4491 19.9063 15.2701 13.6107 13.0631C10.0132 11.7508 6.05601 11.7509 2.45852 12.9438C2.51848 15.5087 2.03883 18.1333 1.13946 20.6982C1.13946 20.6982 1.07948 20.8771 1.01952 21.0561Z" fill="#3B82F6"/>
<path d="M61.9966 36.9443V46.3663H63.1586V36.9443H61.9966ZM53.1206 37.9663V38.9183H59.7846V37.9663H53.1206ZM52.9106 44.4623C54.9686 44.4623 57.8106 44.4203 60.2466 44.0283L60.1766 43.1603C57.8106 43.4403 54.8566 43.4683 52.7846 43.4683L52.9106 44.4623ZM54.3806 38.7783V43.6363H55.5006V38.7783H54.3806ZM57.4046 38.7783V43.6363H58.5246V38.7783H57.4046ZM59.8966 39.3383V40.2903H62.6126V39.3383H59.8966ZM59.8966 41.7603V42.7123H62.6126V41.7603H59.8966ZM55.0666 48.3683V49.3203H63.4946V48.3683H55.0666ZM55.0666 45.5963V48.9703H56.2286V45.5963H55.0666ZM74.8475 36.9303V49.6143H76.0095V36.9303H74.8475ZM66.3635 45.5963V46.5623H67.4135C69.5835 46.5623 71.4875 46.4783 73.7835 46.1003L73.6575 45.1483C71.4175 45.5123 69.5275 45.5963 67.4135 45.5963H66.3635ZM66.3355 38.1203V39.0723H71.0115V41.6903H66.3635V45.9603H67.5255V42.6423H72.1875V38.1203H66.3355ZM87.1665 36.9583V46.4503H88.3285V36.9583H87.1665ZM87.9645 41.1023V42.0823H90.2045V41.1023H87.9645ZM78.5425 38.4843V39.4223H86.0185V38.4843H78.5425ZM82.2805 40.1223C80.4745 40.1223 79.2425 41.0603 79.2425 42.4883C79.2425 43.9023 80.4745 44.8403 82.2805 44.8403C84.0725 44.8403 85.3045 43.9023 85.3045 42.4883C85.3045 41.0603 84.0725 40.1223 82.2805 40.1223ZM82.2805 41.0323C83.4145 41.0323 84.1985 41.6063 84.1985 42.4883C84.1985 43.3563 83.4145 43.9303 82.2805 43.9303C81.1325 43.9303 80.3485 43.3563 80.3485 42.4883C80.3485 41.6063 81.1325 41.0323 82.2805 41.0323ZM81.6925 36.9443V38.9743H82.8545V36.9443H81.6925ZM80.4465 48.3683V49.3203H88.9025V48.3683H80.4465ZM80.4465 45.6943V48.7743H81.6085V45.6943H80.4465ZM95.8909 38.3303V39.2683H101.617V38.3303H95.8909ZM97.8649 41.9423V46.2263H99.0129V41.9423H97.8649ZM101.141 38.3303V39.0023C101.141 40.0243 101.141 41.6483 100.763 43.9303L101.911 44.0423C102.275 41.6903 102.275 40.0383 102.275 39.0023V38.3303H101.141ZM103.871 36.9443V49.6003H105.019V36.9443H103.871ZM104.711 42.2363V43.2163H107.049V42.2363H104.711ZM95.3309 46.8423C97.5709 46.8283 100.539 46.7723 103.157 46.3523L103.101 45.4983C100.539 45.8203 97.4869 45.8623 95.1909 45.8623L95.3309 46.8423ZM111.71 43.2723V46.1563H112.886V43.2723H111.71ZM112.312 37.7563C110.338 37.7563 108.91 38.9743 108.91 40.7383C108.91 42.5023 110.338 43.7203 112.312 43.7203C114.286 43.7203 115.7 42.5023 115.7 40.7383C115.7 38.9743 114.286 37.7563 112.312 37.7563ZM112.312 38.7643C113.614 38.7643 114.566 39.5623 114.566 40.7383C114.566 41.9143 113.614 42.7263 112.312 42.7263C110.996 42.7263 110.044 41.9143 110.044 40.7383C110.044 39.5623 110.996 38.7643 112.312 38.7643ZM117.352 36.9303V49.6143H118.514V36.9303H117.352ZM108.434 46.8703C110.688 46.8703 113.782 46.8563 116.624 46.3103L116.526 45.4563C113.768 45.8903 110.576 45.9043 108.266 45.9043L108.434 46.8703ZM134.658 36.9443V49.6003H135.778V36.9443H134.658ZM132.656 41.9563V42.9083H135.078V41.9563H132.656ZM131.858 37.2103V48.9703H132.964V37.2103H131.858ZM125.474 38.4003V46.2123H130.304V38.4003H125.474ZM129.212 39.3243V45.2883H126.566V39.3243H129.212ZM141.335 39.0303V39.5763C141.335 41.2983 140.033 42.8383 138.143 43.4543L138.703 44.3503C140.845 43.6503 142.287 41.8023 142.287 39.5763V39.0303H141.335ZM141.531 39.0303V39.5763C141.531 41.6903 143.015 43.4123 145.171 44.0563L145.703 43.1323C143.827 42.6003 142.483 41.1723 142.483 39.5763V39.0303H141.531ZM138.451 38.4983V39.4363H145.339V38.4983H138.451ZM141.335 36.9443V38.9043H142.483V36.9443H141.335ZM147.103 36.9583V44.7003H148.279V36.9583H147.103ZM144.065 44.9663C141.419 44.9663 139.823 45.8063 139.823 47.2623C139.823 48.7323 141.419 49.5723 144.065 49.5723C146.711 49.5723 148.321 48.7323 148.321 47.2623C148.321 45.8063 146.711 44.9663 144.065 44.9663ZM144.065 45.8903C145.997 45.8903 147.159 46.3943 147.159 47.2623C147.159 48.1583 145.997 48.6623 144.065 48.6623C142.147 48.6623 140.985 48.1583 140.985 47.2623C140.985 46.3943 142.147 45.8903 144.065 45.8903ZM154.886 37.8543C152.912 37.8543 151.484 39.0723 151.484 40.8363C151.484 42.6143 152.912 43.8323 154.886 43.8323C156.86 43.8323 158.274 42.6143 158.274 40.8363C158.274 39.0723 156.86 37.8543 154.886 37.8543ZM154.886 38.8623C156.188 38.8623 157.14 39.6603 157.14 40.8363C157.14 42.0123 156.188 42.8243 154.886 42.8243C153.57 42.8243 152.618 42.0123 152.618 40.8363C152.618 39.6603 153.57 38.8623 154.886 38.8623ZM159.926 36.9303V49.6143H161.088V36.9303H159.926ZM151.008 46.8423C153.262 46.8423 156.356 46.8283 159.198 46.2823L159.1 45.4283C156.342 45.8623 153.15 45.8763 150.84 45.8763L151.008 46.8423ZM170.932 38.0363V40.3043C170.932 42.6983 169.406 45.1203 167.53 46.0163L168.244 46.9683C170.316 45.9183 171.884 43.2163 171.884 40.3043V38.0363H170.932ZM171.128 38.0363V40.3043C171.128 43.1183 172.71 45.7223 174.768 46.7303L175.468 45.8063C173.592 44.9383 172.08 42.6143 172.08 40.3043V38.0363H171.128ZM176.784 36.9303V49.6143H177.946V36.9303H176.784ZM183.587 38.2463V39.2683C183.587 41.0743 182.327 42.6983 180.409 43.3703L181.025 44.2803C183.139 43.5243 184.539 41.5923 184.539 39.2683V38.2463H183.587ZM183.797 38.2463V39.2543C183.797 41.4383 185.141 43.3003 187.227 44.0283L187.829 43.1183C185.967 42.4883 184.749 40.9343 184.749 39.2543V38.2463H183.797ZM180.773 37.8263V38.7783H187.535V37.8263H180.773ZM189.131 36.9443V44.5603H190.293V36.9443H189.131ZM189.971 40.2763V41.2423H192.169V40.2763H189.971ZM182.075 45.2323V46.1983H189.131V49.6003H190.293V45.2323H182.075Z" fill="#667085"/>
</svg>
